<svg width="49" height="23" viewBox="0 0 49 23" fill="none" xmlns="http://www.w3.org/2000/svg">
<rect x="0.5" width="48" height="23" rx="4" fill="#FBA421"/>
<path d="M11.8239 8.71023C11.7784 8.25189 11.5833 7.89583 11.2386 7.64205C10.8939 7.38826 10.4261 7.26136 9.83523 7.26136C9.43371 7.26136 9.0947 7.31818 8.81818 7.43182C8.54167 7.54167 8.32955 7.69508 8.18182 7.89205C8.03788 8.08902 7.96591 8.3125 7.96591 8.5625C7.95833 8.77083 8.00189 8.95265 8.09659 9.10795C8.19508 9.26326 8.32955 9.39773 8.5 9.51136C8.67045 9.62121 8.86742 9.7178 9.09091 9.80114C9.31439 9.88068 9.55303 9.94886 9.80682 10.0057L10.8523 10.2557C11.3598 10.3693 11.8258 10.5208 12.25 10.7102C12.6742 10.8996 13.0417 11.1326 13.3523 11.4091C13.6629 11.6856 13.9034 12.0114 14.0739 12.3864C14.2481 12.7614 14.3371 13.1913 14.3409 13.6761C14.3371 14.3883 14.1553 15.0057 13.7955 15.5284C13.4394 16.0473 12.9242 16.4508 12.25 16.7386C11.5795 17.0227 10.7708 17.1648 9.82386 17.1648C8.88447 17.1648 8.06629 17.0208 7.36932 16.733C6.67614 16.4451 6.13447 16.0189 5.74432 15.4545C5.35795 14.8864 5.1553 14.1837 5.13636 13.3466H7.51705C7.54356 13.7367 7.6553 14.0625 7.85227 14.3239C8.05303 14.5814 8.32008 14.7765 8.65341 14.9091C8.99053 15.0379 9.37121 15.1023 9.79545 15.1023C10.2121 15.1023 10.5739 15.0417 10.8807 14.9205C11.1913 14.7992 11.4318 14.6307 11.6023 14.4148C11.7727 14.1989 11.858 13.9508 11.858 13.6705C11.858 13.4091 11.7803 13.1894 11.625 13.0114C11.4735 12.8333 11.25 12.6818 10.9545 12.5568C10.6629 12.4318 10.3049 12.3182 9.88068 12.2159L8.61364 11.8977C7.63258 11.6591 6.85795 11.286 6.28977 10.7784C5.72159 10.2708 5.43939 9.58712 5.44318 8.72727C5.43939 8.02273 5.62689 7.4072 6.00568 6.88068C6.38826 6.35417 6.91288 5.94318 7.57955 5.64773C8.24621 5.35227 9.00379 5.20455 9.85227 5.20455C10.7159 5.20455 11.4697 5.35227 12.1136 5.64773C12.7614 5.94318 13.2652 6.35417 13.625 6.88068C13.9848 7.4072 14.1705 8.01705 14.1818 8.71023H11.8239ZM20.5923 8.27273V10.0909H15.3366V8.27273H20.5923ZM16.5298 6.18182H18.9503V14.3182C18.9503 14.5417 18.9844 14.7159 19.0526 14.8409C19.1207 14.9621 19.2154 15.0473 19.3366 15.0966C19.4616 15.1458 19.6056 15.1705 19.7685 15.1705C19.8821 15.1705 19.9957 15.161 20.1094 15.142C20.223 15.1193 20.3101 15.1023 20.3707 15.0909L20.7514 16.892C20.6302 16.9299 20.4598 16.9735 20.2401 17.0227C20.0204 17.0758 19.7533 17.108 19.4389 17.1193C18.8556 17.142 18.3442 17.0644 17.9048 16.8864C17.4692 16.7083 17.1302 16.4318 16.8878 16.0568C16.6454 15.6818 16.526 15.2083 16.5298 14.6364V6.18182ZM24.6577 17.1648C24.1009 17.1648 23.6046 17.0682 23.169 16.875C22.7334 16.678 22.3887 16.3883 22.1349 16.0057C21.8849 15.6193 21.7599 15.1383 21.7599 14.5625C21.7599 14.0777 21.849 13.6705 22.027 13.3409C22.205 13.0114 22.4474 12.7462 22.7543 12.5455C23.0611 12.3447 23.4096 12.1932 23.7997 12.0909C24.1937 11.9886 24.6065 11.9167 25.0384 11.875C25.5459 11.822 25.955 11.7727 26.2656 11.7273C26.5762 11.678 26.8016 11.6061 26.9418 11.5114C27.0819 11.4167 27.152 11.2765 27.152 11.0909V11.0568C27.152 10.697 27.0384 10.4186 26.8111 10.2216C26.5876 10.0246 26.2694 9.92614 25.8565 9.92614C25.4209 9.92614 25.0743 10.0227 24.8168 10.2159C24.5592 10.4053 24.3887 10.6439 24.3054 10.9318L22.0668 10.75C22.1804 10.2197 22.4039 9.76136 22.7372 9.375C23.0705 8.98485 23.5005 8.68561 24.027 8.47727C24.5573 8.26515 25.1709 8.15909 25.8679 8.15909C26.3527 8.15909 26.8168 8.21591 27.2599 8.32955C27.7069 8.44318 28.1027 8.61932 28.4474 8.85795C28.7959 9.09659 29.0705 9.40341 29.2713 9.77841C29.4721 10.1496 29.5724 10.5947 29.5724 11.1136V17H27.277V15.7898H27.2088C27.0687 16.0625 26.8812 16.303 26.6463 16.5114C26.4115 16.7159 26.1293 16.8769 25.7997 16.9943C25.4702 17.108 25.0895 17.1648 24.6577 17.1648ZM25.3509 15.4943C25.7069 15.4943 26.0213 15.4242 26.294 15.2841C26.5668 15.1402 26.7808 14.947 26.9361 14.7045C27.0914 14.4621 27.169 14.1875 27.169 13.8807V12.9545C27.0933 13.0038 26.9891 13.0492 26.8565 13.0909C26.7277 13.1288 26.5819 13.1648 26.419 13.1989C26.2562 13.2292 26.0933 13.2576 25.9304 13.2841C25.7675 13.3068 25.6198 13.3277 25.4872 13.3466C25.2031 13.3883 24.955 13.4545 24.7429 13.5455C24.5308 13.6364 24.366 13.7595 24.2486 13.9148C24.1312 14.0663 24.0724 14.2557 24.0724 14.483C24.0724 14.8125 24.1918 15.0644 24.4304 15.2386C24.6728 15.4091 24.9796 15.4943 25.3509 15.4943ZM31.4503 17V8.27273H33.7969V9.79545H33.8878C34.0469 9.25379 34.3139 8.8447 34.6889 8.56818C35.0639 8.28788 35.4957 8.14773 35.9844 8.14773C36.1056 8.14773 36.2363 8.1553 36.3764 8.17045C36.5166 8.18561 36.6397 8.20644 36.7457 8.23295V10.3807C36.6321 10.3466 36.4749 10.3163 36.2741 10.2898C36.0734 10.2633 35.8897 10.25 35.723 10.25C35.367 10.25 35.0488 10.3277 34.7685 10.483C34.492 10.6345 34.2723 10.8466 34.1094 11.1193C33.9503 11.392 33.8707 11.7064 33.8707 12.0625V17H31.4503ZM43.0767 8.27273V10.0909H37.821V8.27273H43.0767ZM39.0142 6.18182H41.4347V14.3182C41.4347 14.5417 41.4688 14.7159 41.5369 14.8409C41.6051 14.9621 41.6998 15.0473 41.821 15.0966C41.946 15.1458 42.09 15.1705 42.2528 15.1705C42.3665 15.1705 42.4801 15.161 42.5938 15.142C42.7074 15.1193 42.7945 15.1023 42.8551 15.0909L43.2358 16.892C43.1146 16.9299 42.9441 16.9735 42.7244 17.0227C42.5047 17.0758 42.2377 17.108 41.9233 17.1193C41.34 17.142 40.8286 17.0644 40.3892 16.8864C39.9536 16.7083 39.6146 16.4318 39.3722 16.0568C39.1297 15.6818 39.0104 15.2083 39.0142 14.6364V6.18182Z" fill="black"/>
</svg>
